<mxfile host="app.diagrams.net" modified="2020-11-17T07:36:53.111Z" agent="5.0 (Windows)" etag="chOtxgf-1fSXjxdFNufn" version="13.9.9" type="github">
  <diagram id="r5ZC-w33vzgte6JM3MOx" name="Page-1">
    <mxGraphModel dx="1185" dy="644" grid="1" gridSize="10" guides="1" tooltips="1" connect="1" arrows="1" fold="1" page="1" pageScale="1" pageWidth="4681" pageHeight="3300" math="0" shadow="0">
      <root>
        <mxCell id="0" />
        <mxCell id="1" parent="0" />
        <mxCell id="Q9YdJj5kPWvqrhC-6Ocr-1" value="SRAM CONTROLLER" style="rounded=0;whiteSpace=wrap;html=1;" vertex="1" parent="1">
          <mxGeometry x="510" y="180" width="270" height="240" as="geometry" />
        </mxCell>
        <mxCell id="Q9YdJj5kPWvqrhC-6Ocr-2" value="" style="endArrow=classic;html=1;" edge="1" parent="1">
          <mxGeometry width="50" height="50" relative="1" as="geometry">
            <mxPoint x="440" y="400" as="sourcePoint" />
            <mxPoint x="510" y="400" as="targetPoint" />
          </mxGeometry>
        </mxCell>
        <mxCell id="Q9YdJj5kPWvqrhC-6Ocr-4" value="CLK" style="text;html=1;align=center;verticalAlign=middle;resizable=0;points=[];autosize=1;" vertex="1" parent="1">
          <mxGeometry x="400" y="380" width="40" height="20" as="geometry" />
        </mxCell>
        <mxCell id="Q9YdJj5kPWvqrhC-6Ocr-8" value="2MB SRAM" style="rounded=0;whiteSpace=wrap;html=1;" vertex="1" parent="1">
          <mxGeometry x="930" y="180" width="120" height="120" as="geometry" />
        </mxCell>
        <mxCell id="Q9YdJj5kPWvqrhC-6Ocr-9" value="" style="edgeStyle=elbowEdgeStyle;elbow=horizontal;endArrow=classic;html=1;entryX=-0.016;entryY=0.837;entryDx=0;entryDy=0;entryPerimeter=0;" edge="1" parent="1" target="Q9YdJj5kPWvqrhC-6Ocr-8">
          <mxGeometry width="50" height="50" relative="1" as="geometry">
            <mxPoint x="780" y="410" as="sourcePoint" />
            <mxPoint x="830" y="360" as="targetPoint" />
          </mxGeometry>
        </mxCell>
        <mxCell id="Q9YdJj5kPWvqrhC-6Ocr-10" value="" style="edgeStyle=elbowEdgeStyle;elbow=horizontal;endArrow=classic;html=1;entryX=0;entryY=0.75;entryDx=0;entryDy=0;" edge="1" parent="1" target="Q9YdJj5kPWvqrhC-6Ocr-8">
          <mxGeometry width="50" height="50" relative="1" as="geometry">
            <mxPoint x="780" y="400" as="sourcePoint" />
            <mxPoint x="924" y="269.96000000000004" as="targetPoint" />
            <Array as="points">
              <mxPoint x="840" y="340" />
            </Array>
          </mxGeometry>
        </mxCell>
        <mxCell id="Q9YdJj5kPWvqrhC-6Ocr-11" value="" style="edgeStyle=elbowEdgeStyle;elbow=horizontal;endArrow=classic;html=1;entryX=-0.006;entryY=0.661;entryDx=0;entryDy=0;entryPerimeter=0;exitX=1.007;exitY=0.871;exitDx=0;exitDy=0;exitPerimeter=0;" edge="1" parent="1" source="Q9YdJj5kPWvqrhC-6Ocr-1" target="Q9YdJj5kPWvqrhC-6Ocr-8">
          <mxGeometry width="50" height="50" relative="1" as="geometry">
            <mxPoint x="760" y="390.04" as="sourcePoint" />
            <mxPoint x="904" y="260.00000000000006" as="targetPoint" />
            <Array as="points">
              <mxPoint x="830" y="330" />
            </Array>
          </mxGeometry>
        </mxCell>
        <mxCell id="Q9YdJj5kPWvqrhC-6Ocr-12" value="" style="edgeStyle=elbowEdgeStyle;elbow=horizontal;endArrow=classic;html=1;entryX=0.003;entryY=0.575;entryDx=0;entryDy=0;entryPerimeter=0;exitX=1.011;exitY=0.834;exitDx=0;exitDy=0;exitPerimeter=0;" edge="1" parent="1" source="Q9YdJj5kPWvqrhC-6Ocr-1" target="Q9YdJj5kPWvqrhC-6Ocr-8">
          <mxGeometry width="50" height="50" relative="1" as="geometry">
            <mxPoint x="770" y="380" as="sourcePoint" />
            <mxPoint x="914" y="249.96000000000006" as="targetPoint" />
            <Array as="points">
              <mxPoint x="820" y="320" />
            </Array>
          </mxGeometry>
        </mxCell>
        <mxCell id="Q9YdJj5kPWvqrhC-6Ocr-13" value="" style="edgeStyle=elbowEdgeStyle;elbow=horizontal;endArrow=classic;html=1;entryX=0;entryY=0.5;entryDx=0;entryDy=0;exitX=1.006;exitY=0.792;exitDx=0;exitDy=0;exitPerimeter=0;" edge="1" parent="1" source="Q9YdJj5kPWvqrhC-6Ocr-1" target="Q9YdJj5kPWvqrhC-6Ocr-8">
          <mxGeometry width="50" height="50" relative="1" as="geometry">
            <mxPoint x="740" y="365.02" as="sourcePoint" />
            <mxPoint x="884" y="234.98000000000002" as="targetPoint" />
            <Array as="points">
              <mxPoint x="810" y="310" />
            </Array>
          </mxGeometry>
        </mxCell>
        <mxCell id="Q9YdJj5kPWvqrhC-6Ocr-14" value="" style="endArrow=classic;html=1;" edge="1" parent="1">
          <mxGeometry width="50" height="50" relative="1" as="geometry">
            <mxPoint x="840" y="410" as="sourcePoint" />
            <mxPoint x="780" y="410" as="targetPoint" />
          </mxGeometry>
        </mxCell>
        <mxCell id="Q9YdJj5kPWvqrhC-6Ocr-15" value="&lt;font style=&quot;font-size: 9px&quot;&gt;DATA_BUS[15:0]&lt;/font&gt;" style="edgeLabel;html=1;align=center;verticalAlign=middle;resizable=0;points=[];" vertex="1" connectable="0" parent="Q9YdJj5kPWvqrhC-6Ocr-14">
          <mxGeometry x="-0.446" relative="1" as="geometry">
            <mxPoint x="56.67" y="-130" as="offset" />
          </mxGeometry>
        </mxCell>
        <mxCell id="Q9YdJj5kPWvqrhC-6Ocr-16" value="ADDR [19:0]" style="edgeLabel;html=1;align=center;verticalAlign=middle;resizable=0;points=[];rotation=90;" vertex="1" connectable="0" parent="1">
          <mxGeometry x="840.0033333333332" y="350" as="geometry">
            <mxPoint x="12" y="1.7763568394002505e-15" as="offset" />
          </mxGeometry>
        </mxCell>
        <mxCell id="Q9YdJj5kPWvqrhC-6Ocr-17" value="CHIP_EN" style="edgeLabel;html=1;align=center;verticalAlign=middle;resizable=0;points=[];rotation=-90;" vertex="1" connectable="0" parent="1">
          <mxGeometry x="830.0033333333332" y="310" as="geometry" />
        </mxCell>
        <mxCell id="Q9YdJj5kPWvqrhC-6Ocr-18" value="DATA_EN" style="edgeLabel;html=1;align=center;verticalAlign=middle;resizable=0;points=[];rotation=-90;" vertex="1" connectable="0" parent="1">
          <mxGeometry x="820.0033333333332" y="360" as="geometry">
            <mxPoint y="-4" as="offset" />
          </mxGeometry>
        </mxCell>
        <mxCell id="Q9YdJj5kPWvqrhC-6Ocr-19" value="OUTPUT_EN" style="edgeLabel;html=1;align=center;verticalAlign=middle;resizable=0;points=[];rotation=-90;" vertex="1" connectable="0" parent="1">
          <mxGeometry x="810.0033333333332" y="300" as="geometry" />
        </mxCell>
        <mxCell id="Q9YdJj5kPWvqrhC-6Ocr-20" value="" style="endArrow=classic;html=1;entryX=-0.015;entryY=0.413;entryDx=0;entryDy=0;entryPerimeter=0;" edge="1" parent="1" target="Q9YdJj5kPWvqrhC-6Ocr-8">
          <mxGeometry width="50" height="50" relative="1" as="geometry">
            <mxPoint x="780" y="230" as="sourcePoint" />
            <mxPoint x="830" y="180" as="targetPoint" />
          </mxGeometry>
        </mxCell>
        <mxCell id="Q9YdJj5kPWvqrhC-6Ocr-23" value="UB" style="edgeLabel;html=1;align=center;verticalAlign=middle;resizable=0;points=[];" vertex="1" connectable="0" parent="Q9YdJj5kPWvqrhC-6Ocr-20">
          <mxGeometry x="-0.7037" y="1" relative="1" as="geometry">
            <mxPoint as="offset" />
          </mxGeometry>
        </mxCell>
        <mxCell id="Q9YdJj5kPWvqrhC-6Ocr-21" value="" style="endArrow=classic;html=1;entryX=-0.015;entryY=0.413;entryDx=0;entryDy=0;entryPerimeter=0;" edge="1" parent="1">
          <mxGeometry width="50" height="50" relative="1" as="geometry">
            <mxPoint x="780" y="220.44" as="sourcePoint" />
            <mxPoint x="928.1999999999998" y="219.99999999999994" as="targetPoint" />
          </mxGeometry>
        </mxCell>
        <mxCell id="Q9YdJj5kPWvqrhC-6Ocr-22" value="LB" style="text;html=1;align=center;verticalAlign=middle;resizable=0;points=[];autosize=1;" vertex="1" parent="1">
          <mxGeometry x="840" y="210" width="30" height="20" as="geometry" />
        </mxCell>
        <mxCell id="Q9YdJj5kPWvqrhC-6Ocr-25" value="" style="endArrow=classic;html=1;entryX=0;entryY=0.75;entryDx=0;entryDy=0;" edge="1" parent="1" target="Q9YdJj5kPWvqrhC-6Ocr-1">
          <mxGeometry width="50" height="50" relative="1" as="geometry">
            <mxPoint x="440" y="360" as="sourcePoint" />
            <mxPoint x="510" y="300" as="targetPoint" />
          </mxGeometry>
        </mxCell>
        <mxCell id="Q9YdJj5kPWvqrhC-6Ocr-26" value="READ_WRITE" style="text;html=1;align=center;verticalAlign=middle;resizable=0;points=[];autosize=1;" vertex="1" parent="1">
          <mxGeometry x="365" y="340" width="90" height="20" as="geometry" />
        </mxCell>
        <mxCell id="Q9YdJj5kPWvqrhC-6Ocr-27" value="" style="endArrow=classic;html=1;entryX=-0.008;entryY=0.584;entryDx=0;entryDy=0;entryPerimeter=0;" edge="1" parent="1" target="Q9YdJj5kPWvqrhC-6Ocr-1">
          <mxGeometry width="50" height="50" relative="1" as="geometry">
            <mxPoint x="440" y="320" as="sourcePoint" />
            <mxPoint x="490" y="275" as="targetPoint" />
          </mxGeometry>
        </mxCell>
        <mxCell id="Q9YdJj5kPWvqrhC-6Ocr-29" value="" style="endArrow=classic;html=1;entryX=-0.008;entryY=0.584;entryDx=0;entryDy=0;entryPerimeter=0;" edge="1" parent="1">
          <mxGeometry width="50" height="50" relative="1" as="geometry">
            <mxPoint x="507.8399999999999" y="290.15999999999997" as="sourcePoint" />
            <mxPoint x="440" y="290" as="targetPoint" />
          </mxGeometry>
        </mxCell>
        <mxCell id="Q9YdJj5kPWvqrhC-6Ocr-30" value="DATA_IN[15:0]" style="text;html=1;align=center;verticalAlign=middle;resizable=0;points=[];autosize=1;" vertex="1" parent="1">
          <mxGeometry x="350" y="310" width="90" height="20" as="geometry" />
        </mxCell>
        <mxCell id="Q9YdJj5kPWvqrhC-6Ocr-31" value="DATA_OUT[15:0]" style="text;html=1;align=center;verticalAlign=middle;resizable=0;points=[];autosize=1;" vertex="1" parent="1">
          <mxGeometry x="340" y="280" width="110" height="20" as="geometry" />
        </mxCell>
      </root>
    </mxGraphModel>
  </diagram>
</mxfile>
